<?xml version="1.0" encoding="UTF-8"?>
<svg width="30px" height="30px" viewBox="0 0 30 30" version="1.1" xmlns="http://www.w3.org/2000/svg" xmlns:xlink="http://www.w3.org/1999/xlink">
    <!-- Generator: Sketch 43.1 (39012) - http://www.bohemiancoding.com/sketch -->
    <title>if_facebook_313485</title>
    <desc>Created with Sketch.</desc>
    <defs></defs>
    <g id="Page-1" stroke="none" stroke-width="1" fill="none" fill-rule="evenodd">
        <g id="Desktop" transform="translate(-42.000000, -1511.000000)" fill-rule="nonzero" fill="#FFFFFF">
            <g id="social" transform="translate(42.000000, 1510.000000)">
                <g id="if_facebook_313485" transform="translate(0.000000, 1.000000)">
                    <path d="M16.5031315,12.7453027 L16.5031315,11.054405 C16.5031315,10.2911273 16.6876409,9.92693111 17.8724843,9.92693111 L19.3215031,9.92693111 L19.3215031,7.1085595 L16.878476,7.1085595 C13.8387056,7.1085595 12.8705637,8.45843424 12.8705637,10.8503549 L12.8705637,12.7453027 L10.8037578,12.7453027 L10.8037578,15.6263048 L12.8705637,15.6263048 L12.8705637,24.1440501 L16.5031315,24.1440501 L16.5031315,15.6263048 L19.0218789,15.6263048 L19.3591441,12.7453027 L16.5031315,12.7453027 Z" id="Shape"></path>
                    <path d="M15,0.0313152401 C6.73302714,0.0313152401 0.0313152401,6.73302714 0.0313152401,15 C0.0313152401,23.2669729 6.73302714,29.9686848 15,29.9686848 C23.2669729,29.9686848 29.9686848,23.2669729 29.9686848,15 C29.9686848,6.73302714 23.2669729,0.0313152401 15,0.0313152401 Z M24.920167,24.920167 C22.2703967,27.5699374 18.7473695,29.0292276 15,29.0292276 C11.2526305,29.0292276 7.72960334,27.5699374 5.07983299,24.920167 C2.43006263,22.2703967 0.970772443,18.7473695 0.970772443,15 C0.970772443,11.2526305 2.43006263,7.72960334 5.07983299,5.07983299 C7.72960334,2.43006263 11.2526305,0.970772443 15,0.970772443 C18.7473695,0.970772443 22.2703967,2.43006263 24.920167,5.07983299 C27.5699374,7.72960334 29.0292276,11.2526305 29.0292276,15 C29.0292276,18.7473695 27.5699374,22.2703967 24.920167,24.920167 Z" id="Shape"></path>
                </g>
            </g>
        </g>
    </g>
</svg>