<?xml version="1.0" encoding="UTF-8"?>
<svg width="30px" height="30px" viewBox="0 0 30 30" version="1.1" xmlns="http://www.w3.org/2000/svg" xmlns:xlink="http://www.w3.org/1999/xlink">
    <!-- Generator: Sketch 43.1 (39012) - http://www.bohemiancoding.com/sketch -->
    <title>if_instagram_281827</title>
    <desc>Created with Sketch.</desc>
    <defs></defs>
    <g id="Page-1" stroke="none" stroke-width="1" fill="none" fill-rule="evenodd">
        <g id="Desktop" transform="translate(-94.000000, -1510.000000)" fill="#FFFFFF">
            <g id="social" transform="translate(42.000000, 1510.000000)">
                <g id="if_instagram_281827" transform="translate(52.000000, 0.000000)">
                    <path d="M15,1.5 C22.44375,1.5 28.5,7.55625 28.5,15 C28.5,22.44375 22.4445,28.5 15,28.5 C7.5555,28.5 1.5,22.44375 1.5,15 C1.5,7.55625 7.55625,1.5 15,1.5 L15,1.5 Z M15,0 C6.7155,0 0,6.7155 0,15 C0,23.28525 6.7155,30 15,30 C23.283,30 30,23.28525 30,15 C30,6.7155 23.28375,0 15,0 L15,0 Z" id="Shape" fill-rule="nonzero"></path>
                    <path d="M9.40275,7.98075 L20.59725,7.98075 C21.65925,7.98075 22.52925,8.85 22.52925,9.9135 L22.52925,21.10725 C22.52925,22.17075 21.65925,23.04 20.59725,23.04 L9.40275,23.04 C8.34,23.04 7.47,22.17075 7.47,21.10725 L7.47,9.9135 C7.47,8.85 8.34,7.98075 9.40275,7.98075 L9.40275,7.98075 Z M18.441,9.654 C18.0675,9.654 17.763,9.96269377 17.763,10.3396491 L17.763,11.9809594 C17.763,12.3579147 18.0675,12.66585 18.441,12.66585 L20.1435,12.66585 C20.5155,12.66585 20.82,12.3579147 20.82,11.9809594 L20.82,10.3396491 C20.82,9.96269377 20.5155,9.654 20.1435,9.654 L18.441,9.654 L18.441,9.654 Z M20.8275,14.349 L19.5015,14.349 C19.6275,14.7585 19.695,15.192 19.695,15.642 C19.695,18.147 17.59875,20.17725 15.015,20.17725 C12.42975,20.17725 10.33275,18.147 10.33275,15.642 C10.33275,15.192 10.401,14.7585 10.52625,14.349 L9.14325,14.349 L9.14325,20.7105 C9.14325,21.03975 9.41175,21.30975 9.74175,21.30975 L20.229,21.30975 C20.5575,21.30975 20.82675,21.0405 20.82675,20.7105 L20.82675,14.349 L20.8275,14.349 Z M15.015,12.5475 C13.34325,12.5475 11.9895,13.85925 11.9895,15.47775 C11.9895,17.097 13.34325,18.4095 15.015,18.4095 C16.6845,18.4095 18.03825,17.097 18.03825,15.47775 C18.03825,13.85925 16.6845,12.5475 15.015,12.5475 Z" id="Shape"></path>
                </g>
            </g>
        </g>
    </g>
</svg>