<?xml version="1.0" encoding="UTF-8"?>
<svg width="30px" height="30px" viewBox="0 0 30 30" version="1.1" xmlns="http://www.w3.org/2000/svg" xmlns:xlink="http://www.w3.org/1999/xlink">
    <!-- Generator: Sketch 43.1 (39012) - http://www.bohemiancoding.com/sketch -->
    <title>if_twitter_313466</title>
    <desc>Created with Sketch.</desc>
    <defs></defs>
    <g id="Page-1" stroke="none" stroke-width="1" fill="none" fill-rule="evenodd">
        <g id="Desktop" transform="translate(-146.000000, -1510.000000)" fill-rule="nonzero" fill="#FFFFFF">
            <g id="social" transform="translate(42.000000, 1510.000000)">
                <g id="if_twitter_313466" transform="translate(104.000000, 0.000000)">
                    <path d="M25.0521921,10.1286639 C24.3822338,10.4264718 23.6612317,10.6273278 22.9047182,10.7172025 C23.6771399,10.2548017 24.2694363,9.52227557 24.5487683,8.64851775 C23.826263,9.07722338 23.0264718,9.38843424 22.1745094,9.55634656 C21.492714,8.82983299 20.5208768,8.37551148 19.4455115,8.37551148 C17.3809603,8.37551148 15.7069102,10.0494363 15.7069102,12.1144885 C15.7069102,12.4070981 15.7398539,12.6923173 15.8038622,12.9664509 C12.6963883,12.8103132 9.94108559,11.3220877 8.09699374,9.05993737 C7.7751357,9.61183716 7.59087683,10.2540501 7.59087683,10.9399165 C7.59087683,12.2369311 8.25087683,13.3815031 9.25409186,14.0518372 C8.64150313,14.0322338 8.06473904,13.8639457 7.56050104,13.5838622 C7.56012526,13.5993946 7.56012526,13.6153027 7.56012526,13.6311482 C7.56012526,15.4423591 8.84899791,16.9531315 10.5595616,17.2972234 C10.2458455,17.3823382 9.91553236,17.4282463 9.57444676,17.4282463 C9.33325678,17.4282463 9.09901879,17.4048852 8.87079332,17.3609186 C9.34691023,18.8462004 10.7275365,19.9275783 12.363382,19.957453 C11.0837787,20.9603549 9.4719833,21.5582255 7.71995825,21.5582255 C7.41845511,21.5582255 7.12064718,21.5404384 6.82803758,21.5056785 C8.48311065,22.5670146 10.4482046,23.1855532 12.5594781,23.1855532 C19.4369937,23.1855532 23.1973904,17.4884969 23.1973904,12.5476409 C23.1973904,12.3855532 23.194071,12.2239666 23.1870564,12.0634447 C23.9172651,11.5373486 24.5512735,10.8785386 25.0521921,10.1286639 Z" id="Shape"></path>
                    <path d="M15,0.0313152401 C6.73302714,0.0313152401 0.0313152401,6.73302714 0.0313152401,15 C0.0313152401,23.2669729 6.73302714,29.9686848 15,29.9686848 C23.2669729,29.9686848 29.9686848,23.2669729 29.9686848,15 C29.9686848,6.73302714 23.2669729,0.0313152401 15,0.0313152401 Z M24.920167,24.920167 C22.2703967,27.5699374 18.7473695,29.0292276 15,29.0292276 C11.2526305,29.0292276 7.72960334,27.5699374 5.07983299,24.920167 C2.43006263,22.2703967 0.970772443,18.7473695 0.970772443,15 C0.970772443,11.2526305 2.43006263,7.72960334 5.07983299,5.07983299 C7.72960334,2.43006263 11.2526305,0.970772443 15,0.970772443 C18.7473695,0.970772443 22.2703967,2.43006263 24.920167,5.07983299 C27.5699374,7.72960334 29.0292276,11.2526305 29.0292276,15 C29.0292276,18.7473695 27.5699374,22.2703967 24.920167,24.920167 Z" id="Shape"></path>
                </g>
            </g>
        </g>
    </g>
</svg>